<svg xmlns="http://www.w3.org/2000/svg" version="1.1" viewBox="0.00 0.00 78.00 90.00" width="78.00" height="90.00">
<g stroke-width="2.00" fill="none" stroke-linecap="butt">
<path stroke="#206496" d="&#10;  M 44.45 0.00&#10;  Q 45.89 0.79 47.52 0.92&#10;  Q 48.03 0.97 47.92 1.46&#10;  L 47.45 3.54"/>
<path stroke="#03477b" d="&#10;  M 47.45 3.54&#10;  Q 45.19 3.53 42.64 3.76&#10;  Q 40.17 3.98 37.90 3.85&#10;  Q 33.03 3.57 28.16 3.93&#10;  Q 27.97 3.95 27.80 4.06&#10;  Q 27.67 4.14 27.55 4.24&#10;  A 0.97 0.94 -70.7 0 1 27.09 4.47&#10;  L 23.03 5.33"/>
<path stroke="#206496" d="&#10;  M 23.03 5.33&#10;  Q 23.21 4.80 22.84 4.47&#10;  Q 22.63 4.29 22.10 4.27&#10;  Q 20.66 4.22 20.90 3.21"/>
<path stroke="#205b89" d="&#10;  M 56.45 5.66&#10;  Q 55.71 6.09 55.14 5.87&#10;  Q 53.93 5.40 55.14 4.96&#10;  Q 55.30 4.90 55.47 4.93&#10;  Q 56.10 5.03 55.93 4.41&#10;  Q 55.78 3.87 55.31 3.33&#10;  Q 54.97 2.93 54.45 2.97&#10;  L 47.45 3.54"/>
<path stroke="#03477b" d="&#10;  M 56.60 5.87&#10;  Q 57.72 7.27 60.03 6.96&#10;  Q 60.52 6.90 60.92 7.21&#10;  Q 61.89 7.95 62.15 8.86"/>
<path stroke="#6897b6" d="&#10;  M 62.15 8.86&#10;  L 59.47 9.37&#10;  A 0.56 0.56 0.0 0 0 59.16 10.29&#10;  C 61.36 12.78 63.19 14.92 66.85 12.99"/>
<path stroke="#03477b" d="&#10;  M 66.85 12.99&#10;  Q 66.82 17.63 67.11 22.00&#10;  C 67.23 23.76 68.03 24.94 68.11 26.60&#10;  Q 68.34 31.56 68.23 37.41&#10;  Q 68.19 39.52 67.35 41.49&#10;  Q 63.64 50.13 60.71 57.84&#10;  Q 58.36 64.02 52.74 69.90&#10;  C 51.43 71.27 49.44 71.82 47.88 72.86&#10;  A 1.34 1.31 -57.6 0 1 46.99 73.07&#10;  Q 45.72 72.92 44.64 73.71&#10;  A 1.98 1.96 -61.7 0 1 43.39 74.09&#10;  C 39.69 73.96 35.36 74.96 31.93 73.31&#10;  Q 29.26 72.03 26.21 69.76&#10;  C 24.75 68.68 24.64 67.16 22.97 66.15&#10;  Q 22.55 65.90 22.32 65.48&#10;  Q 19.94 61.13 18.57 56.09&#10;  C 18.02 54.07 16.40 52.58 15.60 50.64&#10;  Q 14.08 46.93 12.38 43.44&#10;  C 11.59 41.82 11.01 39.76 10.88 37.95&#10;  C 10.72 35.81 9.34 33.28 10.23 31.31&#10;  C 11.49 28.53 10.37 25.55 11.46 22.77&#10;  Q 11.94 21.53 11.95 20.00&#10;  Q 11.96 16.58 12.51 13.32"/>
<path stroke="#6897b6" d="&#10;  M 12.51 13.32&#10;  Q 16.45 14.17 19.16 9.95&#10;  Q 19.44 9.52 18.99 9.27&#10;  Q 17.97 8.68 16.67 8.47"/>
<path stroke="#03477b" d="&#10;  M 16.67 8.47&#10;  L 17.76 7.06&#10;  Q 18.04 6.70 18.49 6.64&#10;  L 20.25 6.41"/>
<path stroke="#205b89" d="&#10;  M 20.25 6.41&#10;  L 23.03 5.33"/>
<path stroke="#03325e" d="&#10;  M 16.43 41.29&#10;  Q 16.57 41.49 16.54 41.98"/>
<path stroke="#6897b6" d="&#10;  M 16.54 41.98&#10;  Q 16.29 41.99 16.36 42.35&#10;  Q 16.40 42.51 16.56 42.67&#10;  Q 17.50 43.55 18.54 45.21&#10;  Q 19.29 46.40 20.46 45.83"/>
<path stroke="#03325e" d="&#10;  M 20.46 45.83&#10;  Q 20.74 45.87 20.75 46.15"/>
<path stroke="#6897b6" d="&#10;  M 20.75 46.15&#10;  Q 19.78 46.64 20.52 47.71&#10;  C 25.99 55.64 22.98 68.73 35.93 69.83&#10;  Q 41.93 70.34 46.70 69.41&#10;  C 52.41 68.29 54.00 61.11 55.14 56.06&#10;  Q 56.48 50.14 61.00 44.08&#10;  Q 62.68 41.82 63.96 38.72&#10;  Q 66.84 31.79 61.95 26.80&#10;  Q 61.83 26.68 61.75 26.53&#10;  Q 61.68 26.38 61.81 26.27&#10;  Q 62.08 26.03 62.05 25.68&#10;  L 61.74 20.59&#10;  Q 61.70 19.98 62.19 19.60&#10;  L 62.53 19.34&#10;  Q 63.02 18.97 62.76 18.42&#10;  Q 61.15 14.91 58.29 11.73&#10;  Q 56.68 9.94 54.52 9.49&#10;  Q 51.99 8.97 49.68 8.40&#10;  A 0.28 0.27 29.5 0 1 49.55 7.94&#10;  Q 50.52 6.97 51.26 5.72&#10;  Q 51.62 5.11 51.13 5.61&#10;  Q 51.03 5.71 50.89 5.71&#10;  Q 47.74 5.58 44.78 7.34&#10;  Q 43.84 7.90 43.96 6.81&#10;  Q 44.04 6.13 44.49 5.63&#10;  Q 44.95 5.11 44.26 5.16&#10;  Q 42.68 5.26 41.47 6.17&#10;  Q 41.07 6.47 41.00 6.98&#10;  Q 40.41 11.58 40.03 15.79&#10;  Q 40.01 15.98 39.90 16.14&#10;  Q 39.75 16.33 39.50 16.34&#10;  Q 38.92 16.36 38.84 15.78&#10;  Q 38.38 12.31 38.02 8.42&#10;  C 37.88 6.88 36.56 5.84 35.41 5.04&#10;  A 0.89 0.89 0.0 0 0 34.01 5.78&#10;  L 34.03 6.56&#10;  Q 34.04 7.26 33.44 6.92&#10;  Q 30.66 5.37 27.33 5.39&#10;  A 0.22 0.21 -0.1 0 0 27.12 5.59&#10;  L 27.10 5.91&#10;  A 0.52 0.51 10.5 0 0 27.47 6.44&#10;  L 28.64 6.79&#10;  A 0.52 0.52 0.0 0 1 28.69 7.77&#10;  Q 26.53 8.67 24.33 9.02&#10;  C 20.42 9.66 17.00 15.22 15.40 18.50&#10;  Q 15.04 19.25 15.86 19.35&#10;  Q 16.07 19.38 16.16 19.57&#10;  Q 16.37 19.99 16.33 20.45&#10;  Q 16.11 23.25 16.35 26.17&#10;  Q 16.39 26.65 16.09 27.02&#10;  Q 10.67 33.62 15.83 40.99&#10;  Q 16.14 41.43 16.43 41.29"/>
<path stroke="#698ca6" d="&#10;  M 20.75 46.15&#10;  L 25.57 44.95&#10;  A 1.37 1.34 55.0 0 1 26.65 45.15&#10;  L 28.97 46.78&#10;  Q 29.48 47.14 29.20 47.69&#10;  C 27.51 51.09 29.01 53.71 30.34 56.80&#10;  Q 30.81 57.90 30.69 59.03&#10;  C 30.46 61.06 29.36 65.65 33.15 65.31&#10;  Q 36.26 65.03 39.24 64.69&#10;  Q 40.98 64.48 42.81 64.90&#10;  Q 44.98 65.38 47.12 65.02&#10;  A 2.20 2.20 0.0 0 0 48.94 63.12&#10;  C 49.27 60.53 48.86 57.94 49.83 55.44&#10;  Q 50.58 53.52 51.08 51.75&#10;  Q 51.63 49.81 50.35 47.80&#10;  Q 50.03 47.30 50.49 46.92&#10;  L 52.54 45.20&#10;  A 1.18 1.16 -56.5 0 1 53.61 44.97&#10;  Q 56.03 45.69 58.38 46.54&#10;  Q 58.46 46.57 58.49 46.50&#10;  L 58.49 46.50&#10;  Q 58.56 46.38 58.44 46.31&#10;  Q 53.79 43.38 48.64 44.26&#10;  Q 48.47 44.29 48.36 44.16&#10;  Q 48.26 44.04 48.12 44.01&#10;  Q 47.67 43.90 47.57 44.36&#10;  Q 47.53 44.54 47.55 44.72&#10;  A 0.58 0.58 0.0 0 1 46.94 45.38&#10;  L 42.58 45.04&#10;  Q 41.90 44.99 41.74 44.33&#10;  L 41.29 42.52&#10;  Q 41.15 41.95 41.73 41.84&#10;  C 44.58 41.33 49.24 39.75 49.07 36.36&#10;  Q 48.88 32.51 47.90 28.38&#10;  Q 47.52 26.81 48.28 25.28&#10;  Q 49.08 23.66 49.42 21.68&#10;  A 0.15 0.14 10.7 0 1 49.60 21.56&#10;  L 49.87 21.62&#10;  Q 50.12 21.69 50.06 21.95&#10;  Q 49.30 25.08 52.34 25.21&#10;  Q 55.46 25.36 55.37 22.44&#10;  Q 55.35 21.85 55.93 21.77&#10;  Q 57.02 21.61 58.15 21.60&#10;  Q 58.54 21.60 58.85 21.37&#10;  Q 59.15 21.14 59.16 20.80&#10;  Q 59.16 20.27 58.66 20.10&#10;  Q 54.68 18.80 50.19 19.70&#10;  C 47.32 20.27 45.82 22.80 44.76 25.29&#10;  Q 44.59 25.70 44.67 26.15&#10;  L 46.52 35.71&#10;  Q 46.63 36.28 46.09 36.47&#10;  Q 42.67 37.66 39.66 37.87&#10;  C 37.14 38.06 35.06 36.69 32.58 36.40&#10;  Q 31.96 36.32 32.09 35.71&#10;  L 34.15 26.28&#10;  Q 34.33 25.47 33.94 24.73&#10;  C 32.57 22.18 31.38 19.76 28.08 19.43&#10;  Q 23.95 19.02 20.06 20.18&#10;  Q 18.15 20.75 20.06 21.32&#10;  L 22.50 22.04&#10;  Q 23.06 22.20 23.21 22.77&#10;  L 23.50 23.81&#10;  Q 23.65 24.33 24.11 24.63&#10;  Q 25.74 25.69 27.85 24.85&#10;  Q 28.35 24.65 28.53 24.14&#10;  L 29.04 22.69&#10;  Q 29.32 21.89 29.73 22.64&#10;  Q 29.93 23.01 29.80 23.43&#10;  Q 29.61 24.02 29.96 24.53&#10;  C 30.63 25.52 31.21 26.66 30.91 27.87&#10;  C 29.97 31.64 27.98 36.14 31.19 39.34&#10;  C 32.75 40.91 34.90 41.23 36.91 41.89&#10;  A 0.63 0.62 10.5 0 1 37.34 42.51&#10;  Q 37.30 43.54 36.78 44.49&#10;  Q 36.53 44.96 36.01 45.05&#10;  Q 33.47 45.50 31.15 45.16&#10;  Q 31.00 45.14 30.88 45.04&#10;  Q 30.77 44.94 30.71 44.79&#10;  Q 30.60 44.48 30.28 44.40&#10;  Q 25.14 42.98 20.46 45.83"/>
<path stroke="#698ca6" d="&#10;  M 16.54 41.98&#10;  Q 17.75 41.90 18.96 41.51&#10;  C 21.53 40.67 24.57 40.76 27.27 41.03&#10;  Q 27.47 41.06 27.62 40.91&#10;  Q 27.70 40.82 27.74 40.69&#10;  Q 27.76 40.64 27.71 40.62&#10;  C 22.30 38.69 20.11 33.61 24.30 28.82&#10;  Q 25.49 27.46 23.75 27.97&#10;  C 19.94 29.08 16.27 31.25 15.83 35.21&#10;  C 15.59 37.40 17.60 38.81 19.37 39.67&#10;  Q 20.32 40.13 19.31 40.43&#10;  L 16.43 41.29"/>
<path stroke="#206496" d="&#10;  M 20.25 6.41&#10;  Q 19.68 6.37 19.63 6.00&#10;  Q 19.54 5.31 19.94 5.11"/>
<path stroke="#69a0c3" d="&#10;  M 16.67 8.47&#10;  Q 13.09 8.94 10.12 11.43&#10;  Q 9.72 11.76 10.18 12.02&#10;  L 12.51 13.32"/>
<path stroke="#69a0c3" d="&#10;  M 66.85 12.99&#10;  Q 67.63 12.72 68.22 12.13&#10;  Q 68.60 11.76 68.17 11.47&#10;  Q 65.30 9.53 62.15 8.86"/>
<path stroke="#206496" d="&#10;  M 77.78 40.45&#10;  Q 77.64 40.36 77.52 40.37&#10;  Q 77.31 40.40 77.29 40.61&#10;  L 76.79 46.30"/>
<path stroke="#206496" d="&#10;  M 62.28 67.89&#10;  Q 63.34 65.04 61.79 62.82&#10;  Q 61.45 62.33 61.29 62.90&#10;  Q 61.04 63.78 61.62 65.09"/>
<path stroke="#206496" d="&#10;  M 15.58 64.79&#10;  Q 15.93 62.80 14.99 62.21&#10;  Q 14.52 61.91 14.32 62.43&#10;  Q 13.44 64.73 14.85 67.21"/>
<path stroke="#206496" d="&#10;  M 6.23 26.14&#10;  Q 6.66 26.63 7.02 25.92&#10;  Q 7.26 25.44 6.75 25.28&#10;  Q 6.01 25.05 5.25 25.08&#10;  Q 3.74 25.15 3.99 25.94"/>
<path stroke="#698ca6" d="&#10;  M 47.88 17.04&#10;  Q 51.83 15.98 53.51 13.27&#10;  Q 54.74 11.27 52.68 12.39&#10;  Q 48.97 14.39 45.26 15.57&#10;  A 1.59 1.59 0.0 0 0 44.15 17.03&#10;  L 43.99 21.70&#10;  Q 43.95 22.75 44.62 21.93&#10;  Q 46.08 20.12 47.06 17.76&#10;  Q 47.30 17.20 47.88 17.04"/>
<path stroke="#698ca6" d="&#10;  M 31.68 18.07&#10;  Q 32.51 20.12 34.09 21.99&#10;  Q 34.69 22.71 34.64 21.77&#10;  L 34.39 16.97&#10;  A 1.13 1.12 -79.6 0 0 33.73 16.01&#10;  L 25.80 12.37&#10;  Q 23.80 11.45 25.03 13.27&#10;  C 25.57 14.06 26.08 14.88 26.95 15.33&#10;  Q 28.93 16.35 30.93 17.29&#10;  Q 31.46 17.53 31.68 18.07"/>
<path stroke="#6897b6" d="&#10;  M 36.57 23.36&#10;  L 36.76 23.56&#10;  Q 36.85 23.66 36.98 23.61&#10;  Q 39.10 22.84 40.91 23.59&#10;  A 0.74 0.73 -58.6 0 0 41.76 23.38&#10;  L 42.02 23.08&#10;  Q 42.37 22.67 41.86 22.46&#10;  Q 39.16 21.36 36.65 22.81&#10;  Q 36.27 23.03 36.57 23.36"/>
<path stroke="#698ca6" d="&#10;  M 58.77 39.82&#10;  C 61.88 38.58 63.96 36.37 62.15 32.89&#10;  C 60.43 29.58 57.58 29.02 54.50 27.71&#10;  Q 54.17 27.57 53.96 27.85&#10;  Q 53.65 28.24 54.02 28.57&#10;  C 56.65 30.95 57.63 34.42 55.32 37.39&#10;  Q 53.74 39.43 51.78 40.18&#10;  Q 49.62 41.01 51.93 40.90&#10;  Q 56.54 40.68 61.10 41.81&#10;  Q 61.25 41.85 61.30 41.70&#10;  L 61.31 41.69&#10;  Q 61.37 41.49 61.18 41.41&#10;  Q 60.01 40.92 58.77 40.42&#10;  Q 58.02 40.12 58.77 39.82"/>
<path stroke="#6897b6" d="&#10;  M 27.50 42.46&#10;  Q 22.79 41.48 18.40 43.55&#10;  Q 18.28 43.61 18.37 43.70&#10;  L 18.62 43.95&#10;  Q 18.75 44.08 18.93 44.01&#10;  Q 21.40 42.98 23.68 42.94&#10;  Q 26.14 42.89 28.51 42.74&#10;  Q 28.78 42.72 28.98 42.55&#10;  Q 29.18 42.38 29.24 42.10&#10;  Q 29.36 41.59 28.91 41.87&#10;  L 28.19 42.33&#10;  A 0.97 0.96 -55.6 0 1 27.50 42.46"/>
<path stroke="#6897b6" d="&#10;  M 57.07 43.22&#10;  Q 58.11 43.53 59.23 43.80&#10;  Q 59.29 43.82 59.31 43.69&#10;  L 59.34 43.51&#10;  Q 59.36 43.40 59.25 43.35&#10;  Q 54.39 41.41 49.02 42.38&#10;  Q 48.91 42.40 48.92 42.52&#10;  L 48.96 42.79&#10;  Q 48.99 43.06 49.26 43.02&#10;  C 51.41 42.73 54.81 42.52 57.07 43.22"/>
<path stroke="#698ca6" d="&#10;  M 25.85 22.80&#10;  Q 25.37 22.49 24.82 22.29&#10;  Q 23.85 21.95 24.41 22.81&#10;  L 24.99 23.71&#10;  Q 25.37 24.29 26.06 24.27&#10;  Q 28.02 24.21 28.33 22.05&#10;  Q 28.42 21.45 27.95 21.83&#10;  L 26.82 22.75&#10;  Q 26.35 23.12 25.85 22.80"/>
<path stroke="#698ca6" d="&#10;  M 52.42 22.98&#10;  Q 52.01 22.73 51.71 22.32&#10;  Q 51.16 21.56 51.00 22.48&#10;  Q 50.92 23.02 51.07 23.55&#10;  Q 51.30 24.33 52.11 24.29&#10;  Q 53.97 24.21 54.42 22.76&#10;  Q 54.58 22.25 54.05 22.27&#10;  Q 53.38 22.29 52.98 22.86&#10;  Q 52.76 23.17 52.42 22.98"/>
<path stroke="#698ca6" d="&#10;  M 32.24 53.76&#10;  Q 32.87 54.71 32.65 55.59&#10;  Q 32.64 55.62 32.61 55.64&#10;  Q 32.49 55.71 32.37 55.71&#10;  Q 32.03 55.73 32.03 55.39&#10;  Q 32.03 53.89 31.35 53.11&#10;  Q 29.68 51.21 30.55 53.59&#10;  Q 31.39 55.88 32.91 59.18"/>
<path stroke="#788a9d" d="&#10;  M 32.91 59.18&#10;  Q 32.57 61.18 33.14 62.97&#10;  Q 33.42 63.84 34.29 63.56&#10;  L 35.17 63.27&#10;  Q 35.98 63.01 35.78 62.18&#10;  L 34.79 58.11"/>
<path stroke="#698ca6" d="&#10;  M 34.79 58.11&#10;  L 36.39 59.72&#10;  A 0.27 0.27 0.0 0 0 36.76 59.73&#10;  L 37.02 59.49&#10;  Q 37.44 59.09 37.79 59.56&#10;  Q 38.65 60.72 39.81 61.44"/>
<path stroke="#788a9d" d="&#10;  M 39.81 61.44&#10;  Q 39.29 62.30 38.36 60.55&#10;  A 0.78 0.78 0.0 0 0 36.99 60.54&#10;  L 36.33 61.72&#10;  A 0.71 0.71 0.0 0 0 36.98 62.77&#10;  L 42.87 62.47"/>
<path stroke="#698ca6" d="&#10;  M 42.87 62.47&#10;  Q 44.23 62.99 45.55 62.91&#10;  Q 46.10 62.88 46.27 62.35&#10;  Q 46.70 60.94 46.18 59.63&#10;  Q 45.94 59.04 46.56 58.89&#10;  L 46.98 58.79&#10;  Q 47.55 58.65 47.66 58.07&#10;  L 48.74 52.46"/>
<path stroke="#788a9d" d="&#10;  M 48.74 52.46&#10;  Q 47.79 50.72 47.76 48.21&#10;  Q 47.76 47.50 47.08 47.69&#10;  Q 43.50 48.70 40.13 47.15&#10;  A 1.56 1.55 46.3 0 0 38.92 47.12&#10;  Q 35.44 48.51 32.28 47.79&#10;  A 0.82 0.80 14.9 0 0 31.33 48.33&#10;  Q 30.39 51.27 32.24 53.76"/>
<path stroke="#ddeff6" d="&#10;  M 48.74 52.46&#10;  Q 48.37 53.22 47.74 53.76"/>
<path stroke="#7795ae" d="&#10;  M 47.74 53.76&#10;  Q 47.74 53.54 47.63 53.42&#10;  Q 47.52 53.30 47.33 53.35&#10;  Q 47.15 53.41 47.02 53.59"/>
<path stroke="#ddeff6" d="&#10;  M 47.02 53.59&#10;  Q 46.49 53.64 46.08 53.10"/>
<path stroke="#788a9d" d="&#10;  M 46.08 53.10&#10;  Q 45.93 51.15 45.12 49.42&#10;  Q 44.86 48.86 44.33 49.17&#10;  Q 44.00 49.37 43.97 49.78&#10;  Q 43.89 50.83 43.33 51.52&#10;  Q 43.02 51.90 42.82 51.45&#10;  L 41.76 49.18&#10;  Q 41.45 48.49 41.06 49.13&#10;  L 39.59 51.56&#10;  A 0.47 0.47 0.0 0 1 38.74 51.45&#10;  Q 38.42 50.38 37.90 49.48&#10;  Q 37.23 48.33 36.93 49.63&#10;  Q 36.73 50.48 36.08 51.04&#10;  Q 35.40 51.64 35.15 50.77&#10;  L 34.67 49.04&#10;  Q 34.47 48.32 34.15 48.99&#10;  Q 33.17 51.06 32.99 53.26"/>
<path stroke="#ddeff6" d="&#10;  M 32.99 53.26&#10;  Q 32.81 54.09 32.24 53.76"/>
<path stroke="#698ca6" d="&#10;  M 46.08 53.10&#10;  Q 42.61 52.50 40.13 54.72&#10;  Q 39.74 55.06 39.23 55.02&#10;  C 38.28 54.96 37.39 53.94 36.43 53.62&#10;  Q 34.83 53.09 32.99 53.26"/>
<path stroke="#6897b6" d="&#10;  M 47.02 53.59&#10;  Q 46.36 54.58 46.38 55.28&#10;  Q 46.40 55.95 46.75 55.38&#10;  L 47.74 53.76"/>
<path stroke="#ddeff6" d="&#10;  M 42.87 62.47&#10;  Q 43.04 61.55 43.23 61.86"/>
<path stroke="#698ca6" d="&#10;  M 43.23 61.86&#10;  Q 44.24 60.82 44.36 58.84&#10;  Q 44.42 57.98 43.77 58.55&#10;  L 42.92 59.29&#10;  Q 42.51 59.65 41.96 59.58&#10;  Q 41.24 59.47 41.04 59.96"/>
<path stroke="#ddeff6" d="&#10;  M 41.04 59.96&#10;  Q 40.92 60.71 39.81 61.44"/>
<path stroke="#ddeff6" d="&#10;  M 34.79 58.11&#10;  Q 34.54 56.81 32.91 59.18"/>
<path stroke="#788a9d" d="&#10;  M 43.23 61.86&#10;  Q 41.96 61.30 41.89 60.33&#10;  Q 41.86 59.90 41.43 59.87&#10;  Q 41.24 59.86 41.04 59.96"/>
<path stroke="#69a0c3" d="&#10;  M 45.64 57.76&#10;  Q 45.46 56.85 44.92 56.13&#10;  Q 44.43 55.49 44.40 56.30&#10;  Q 44.37 57.53 45.44 57.93&#10;  Q 45.68 58.02 45.64 57.76"/>
</g>
<path fill="#035088" d="&#10;  M 29.24 0.00&#10;  L 34.30 0.00&#10;  L 39.01 2.14&#10;  A 0.87 0.86 -45.4 0 0 39.73 2.13&#10;  L 41.92 1.06&#10;  Q 42.36 0.85 42.84 0.83&#10;  Q 43.84 0.79 44.70 0.00&#10;  Q 44.58 0.06 44.45 0.00&#10;  Q 45.89 0.79 47.52 0.92&#10;  Q 48.03 0.97 47.92 1.46&#10;  L 47.45 3.54&#10;  Q 45.19 3.53 42.64 3.76&#10;  Q 40.17 3.98 37.90 3.85&#10;  Q 33.03 3.57 28.16 3.93&#10;  Q 27.97 3.95 27.80 4.06&#10;  Q 27.67 4.14 27.55 4.24&#10;  A 0.97 0.94 -70.7 0 1 27.09 4.47&#10;  L 23.03 5.33&#10;  Q 23.21 4.80 22.84 4.47&#10;  Q 22.63 4.29 22.10 4.27&#10;  Q 20.66 4.22 20.90 3.21&#10;  Q 21.78 3.04 22.31 2.42&#10;  Q 22.63 2.05 23.12 2.04&#10;  Q 26.28 1.98 29.37 2.02&#10;  Q 29.72 2.03 29.94 1.84&#10;  Q 30.05 1.74 30.02 1.58&#10;  Q 29.97 1.32 29.74 1.19&#10;  Q 28.54 0.53 29.24 0.00&#10;  Z"/>
<path fill="#3d78a3" d="&#10;  M 44.45 0.00&#10;  L 48.35 0.00&#10;  L 49.36 0.26&#10;  Q 50.19 0.47 49.41 0.96&#10;  Q 49.14 1.13 49.04 1.43&#10;  Q 48.85 2.03 49.49 2.03&#10;  L 53.46 2.00&#10;  Q 53.81 2.00 54.13 2.17&#10;  Q 55.49 2.91 57.11 3.03&#10;  Q 57.64 3.07 57.89 3.53&#10;  Q 58.61 4.81 56.45 5.66&#10;  Q 55.71 6.09 55.14 5.87&#10;  Q 53.93 5.40 55.14 4.96&#10;  Q 55.30 4.90 55.47 4.93&#10;  Q 56.10 5.03 55.93 4.41&#10;  Q 55.78 3.87 55.31 3.33&#10;  Q 54.97 2.93 54.45 2.97&#10;  L 47.45 3.54&#10;  L 47.92 1.46&#10;  Q 48.03 0.97 47.52 0.92&#10;  Q 45.89 0.79 44.45 0.00&#10;  Z"/>
<path fill="#023d6e" d="&#10;  M 56.45 5.66&#10;  Q 56.53 5.77 56.60 5.87&#10;  Q 57.72 7.27 60.03 6.96&#10;  Q 60.52 6.90 60.92 7.21&#10;  Q 61.89 7.95 62.15 8.86&#10;  L 59.47 9.37&#10;  A 0.56 0.56 0.0 0 0 59.16 10.29&#10;  C 61.36 12.78 63.19 14.92 66.85 12.99&#10;  Q 66.82 17.63 67.11 22.00&#10;  C 67.23 23.76 68.03 24.94 68.11 26.60&#10;  Q 68.34 31.56 68.23 37.41&#10;  Q 68.19 39.52 67.35 41.49&#10;  Q 63.64 50.13 60.71 57.84&#10;  Q 58.36 64.02 52.74 69.90&#10;  C 51.43 71.27 49.44 71.82 47.88 72.86&#10;  A 1.34 1.31 -57.6 0 1 46.99 73.07&#10;  Q 45.72 72.92 44.64 73.71&#10;  A 1.98 1.96 -61.7 0 1 43.39 74.09&#10;  C 39.69 73.96 35.36 74.96 31.93 73.31&#10;  Q 29.26 72.03 26.21 69.76&#10;  C 24.75 68.68 24.64 67.16 22.97 66.15&#10;  Q 22.55 65.90 22.32 65.48&#10;  Q 19.94 61.13 18.57 56.09&#10;  C 18.02 54.07 16.40 52.58 15.60 50.64&#10;  Q 14.08 46.93 12.38 43.44&#10;  C 11.59 41.82 11.01 39.76 10.88 37.95&#10;  C 10.72 35.81 9.34 33.28 10.23 31.31&#10;  C 11.49 28.53 10.37 25.55 11.46 22.77&#10;  Q 11.94 21.53 11.95 20.00&#10;  Q 11.96 16.58 12.51 13.32&#10;  Q 16.45 14.17 19.16 9.95&#10;  Q 19.44 9.52 18.99 9.27&#10;  Q 17.97 8.68 16.67 8.47&#10;  L 17.76 7.06&#10;  Q 18.04 6.70 18.49 6.64&#10;  L 20.25 6.41&#10;  L 23.03 5.33&#10;  L 27.09 4.47&#10;  A 0.97 0.94 -70.7 0 0 27.55 4.24&#10;  Q 27.67 4.14 27.80 4.06&#10;  Q 27.97 3.95 28.16 3.93&#10;  Q 33.03 3.57 37.90 3.85&#10;  Q 40.17 3.98 42.64 3.76&#10;  Q 45.19 3.53 47.45 3.54&#10;  L 54.45 2.97&#10;  Q 54.97 2.93 55.31 3.33&#10;  Q 55.78 3.87 55.93 4.41&#10;  Q 56.10 5.03 55.47 4.93&#10;  Q 55.30 4.90 55.14 4.96&#10;  Q 53.93 5.40 55.14 5.87&#10;  Q 55.71 6.09 56.45 5.66&#10;  Z&#10;  M 16.43 41.29&#10;  Q 16.57 41.49 16.54 41.98&#10;  Q 16.29 41.99 16.36 42.35&#10;  Q 16.40 42.51 16.56 42.67&#10;  Q 17.50 43.55 18.54 45.21&#10;  Q 19.29 46.40 20.46 45.83&#10;  Q 20.74 45.87 20.75 46.15&#10;  Q 19.78 46.64 20.52 47.71&#10;  C 25.99 55.64 22.98 68.73 35.93 69.83&#10;  Q 41.93 70.34 46.70 69.41&#10;  C 52.41 68.29 54.00 61.11 55.14 56.06&#10;  Q 56.48 50.14 61.00 44.08&#10;  Q 62.68 41.82 63.96 38.72&#10;  Q 66.84 31.79 61.95 26.80&#10;  Q 61.83 26.68 61.75 26.53&#10;  Q 61.68 26.38 61.81 26.27&#10;  Q 62.08 26.03 62.05 25.68&#10;  L 61.74 20.59&#10;  Q 61.70 19.98 62.19 19.60&#10;  L 62.53 19.34&#10;  Q 63.02 18.97 62.76 18.42&#10;  Q 61.15 14.91 58.29 11.73&#10;  Q 56.68 9.94 54.52 9.49&#10;  Q 51.99 8.97 49.68 8.40&#10;  A 0.28 0.27 29.5 0 1 49.55 7.94&#10;  Q 50.52 6.97 51.26 5.72&#10;  Q 51.62 5.11 51.13 5.61&#10;  Q 51.03 5.71 50.89 5.71&#10;  Q 47.74 5.58 44.78 7.34&#10;  Q 43.84 7.90 43.96 6.81&#10;  Q 44.04 6.13 44.49 5.63&#10;  Q 44.95 5.11 44.26 5.16&#10;  Q 42.68 5.26 41.47 6.17&#10;  Q 41.07 6.47 41.00 6.98&#10;  Q 40.41 11.58 40.03 15.79&#10;  Q 40.01 15.98 39.90 16.14&#10;  Q 39.75 16.33 39.50 16.34&#10;  Q 38.92 16.36 38.84 15.78&#10;  Q 38.38 12.31 38.02 8.42&#10;  C 37.88 6.88 36.56 5.84 35.41 5.04&#10;  A 0.89 0.89 0.0 0 0 34.01 5.78&#10;  L 34.03 6.56&#10;  Q 34.04 7.26 33.44 6.92&#10;  Q 30.66 5.37 27.33 5.39&#10;  A 0.22 0.21 -0.1 0 0 27.12 5.59&#10;  L 27.10 5.91&#10;  A 0.52 0.51 10.5 0 0 27.47 6.44&#10;  L 28.64 6.79&#10;  A 0.52 0.52 0.0 0 1 28.69 7.77&#10;  Q 26.53 8.67 24.33 9.02&#10;  C 20.42 9.66 17.00 15.22 15.40 18.50&#10;  Q 15.04 19.25 15.86 19.35&#10;  Q 16.07 19.38 16.16 19.57&#10;  Q 16.37 19.99 16.33 20.45&#10;  Q 16.11 23.25 16.35 26.17&#10;  Q 16.39 26.65 16.09 27.02&#10;  Q 10.67 33.62 15.83 40.99&#10;  Q 16.14 41.43 16.43 41.29&#10;  Z"/>
<path fill="#3d78a3" d="&#10;  M 20.90 3.21&#10;  Q 20.66 4.22 22.10 4.27&#10;  Q 22.63 4.29 22.84 4.47&#10;  Q 23.21 4.80 23.03 5.33&#10;  L 20.25 6.41&#10;  Q 19.68 6.37 19.63 6.00&#10;  Q 19.54 5.31 19.94 5.11&#10;  Q 20.28 5.03 20.47 4.89&#10;  Q 20.96 4.53 20.43 4.22&#10;  Q 20.16 4.06 20.07 3.76&#10;  Q 19.90 3.19 20.49 3.20&#10;  L 20.90 3.21&#10;  Z"/>
<path fill="#035088" d="&#10;  M 19.94 5.11&#10;  Q 19.54 5.31 19.63 6.00&#10;  Q 19.68 6.37 20.25 6.41&#10;  L 18.49 6.64&#10;  Q 18.04 6.70 17.76 7.06&#10;  L 16.67 8.47&#10;  Q 13.09 8.94 10.12 11.43&#10;  Q 9.72 11.76 10.18 12.02&#10;  L 12.51 13.32&#10;  Q 11.96 16.58 11.95 20.00&#10;  Q 11.94 21.53 11.46 22.77&#10;  C 10.37 25.55 11.49 28.53 10.23 31.31&#10;  C 9.34 33.28 10.72 35.81 10.88 37.95&#10;  C 11.01 39.76 11.59 41.82 12.38 43.44&#10;  Q 14.08 46.93 15.60 50.64&#10;  C 16.40 52.58 18.02 54.07 18.57 56.09&#10;  Q 19.94 61.13 22.32 65.48&#10;  Q 22.55 65.90 22.97 66.15&#10;  C 24.64 67.16 24.75 68.68 26.21 69.76&#10;  Q 29.26 72.03 31.93 73.31&#10;  C 35.36 74.96 39.69 73.96 43.39 74.09&#10;  A 1.98 1.96 -61.7 0 0 44.64 73.71&#10;  Q 45.72 72.92 46.99 73.07&#10;  A 1.34 1.31 -57.6 0 0 47.88 72.86&#10;  C 49.44 71.82 51.43 71.27 52.74 69.90&#10;  Q 58.36 64.02 60.71 57.84&#10;  Q 63.64 50.13 67.35 41.49&#10;  Q 68.19 39.52 68.23 37.41&#10;  Q 68.34 31.56 68.11 26.60&#10;  C 68.03 24.94 67.23 23.76 67.11 22.00&#10;  Q 66.82 17.63 66.85 12.99&#10;  Q 67.63 12.72 68.22 12.13&#10;  Q 68.60 11.76 68.17 11.47&#10;  Q 65.30 9.53 62.15 8.86&#10;  Q 61.89 7.95 60.92 7.21&#10;  Q 60.52 6.90 60.03 6.96&#10;  Q 57.72 7.27 56.60 5.87&#10;  Q 57.91 5.77 58.82 5.28&#10;  Q 59.25 5.05 59.75 5.02&#10;  C 61.52 4.92 63.15 4.81 64.83 5.62&#10;  Q 69.36 7.83 73.70 10.18&#10;  A 0.79 0.79 0.0 0 1 73.95 11.35&#10;  Q 72.33 13.53 70.10 15.24&#10;  A 0.67 0.67 0.0 0 0 70.03 16.24&#10;  Q 72.87 19.16 74.66 23.09&#10;  C 75.14 24.15 74.98 24.98 75.92 25.90&#10;  A 0.44 0.43 31.7 0 1 76.03 26.34&#10;  L 75.90 26.81&#10;  Q 75.82 27.11 75.58 26.91&#10;  Q 74.17 25.75 72.29 25.83&#10;  Q 71.61 25.85 72.06 26.37&#10;  Q 76.09 30.92 77.11 37.43&#10;  C 77.28 38.52 77.84 39.38 77.78 40.45&#10;  Q 77.64 40.36 77.52 40.37&#10;  Q 77.31 40.40 77.29 40.61&#10;  L 76.79 46.30&#10;  L 74.21 43.88&#10;  A 0.57 0.56 -67.7 0 0 73.26 44.28&#10;  Q 73.16 47.98 73.02 51.86&#10;  Q 72.94 53.99 72.05 56.34&#10;  C 70.09 61.53 67.89 65.58 63.76 69.71&#10;  Q 63.42 70.05 63.01 69.79&#10;  Q 62.28 69.31 62.28 67.89&#10;  Q 63.34 65.04 61.79 62.82&#10;  Q 61.45 62.33 61.29 62.90&#10;  Q 61.04 63.78 61.62 65.09&#10;  Q 58.75 74.71 49.70 79.86&#10;  Q 49.49 79.98 49.25 79.94&#10;  Q 49.10 79.91 49.05 79.76&#10;  Q 48.94 79.43 49.23 79.25&#10;  Q 50.23 78.62 50.16 77.27&#10;  Q 50.12 76.54 49.62 77.06&#10;  Q 48.24 78.49 47.18 79.99&#10;  C 45.65 82.16 42.41 82.76 41.77 85.40&#10;  Q 41.38 87.03 41.62 88.57&#10;  Q 41.70 89.13 41.13 89.15&#10;  Q 39.68 89.19 38.46 88.52&#10;  Q 36.57 87.48 34.76 86.30&#10;  Q 28.45 82.16 25.53 75.97&#10;  Q 25.17 75.21 25.07 76.05&#10;  Q 24.96 77.09 25.14 78.17&#10;  Q 25.40 79.75 24.08 78.84&#10;  Q 19.00 75.31 16.63 69.66&#10;  C 15.98 68.09 15.89 66.50 15.58 64.79&#10;  Q 15.93 62.80 14.99 62.21&#10;  Q 14.52 61.91 14.32 62.43&#10;  Q 13.44 64.73 14.85 67.21&#10;  L 15.14 69.02&#10;  Q 15.26 69.79 14.67 69.27&#10;  Q 9.16 64.37 6.77 57.72&#10;  Q 6.14 55.98 5.91 54.25&#10;  C 5.70 52.58 4.93 51.23 4.97 49.51&#10;  Q 5.05 46.73 4.97 44.16&#10;  Q 4.96 43.51 4.37 43.79&#10;  Q 2.46 44.70 1.66 46.08&#10;  Q 0.85 47.48 0.86 45.86&#10;  Q 0.87 41.45 1.09 37.30&#10;  Q 1.14 36.47 1.57 35.25&#10;  Q 1.84 34.48 2.21 33.23&#10;  Q 3.23 29.69 6.23 26.14&#10;  Q 6.66 26.63 7.02 25.92&#10;  Q 7.26 25.44 6.75 25.28&#10;  Q 6.01 25.05 5.25 25.08&#10;  Q 3.74 25.15 3.99 25.94&#10;  L 2.62 26.34&#10;  Q 1.85 26.56 2.27 25.88&#10;  Q 3.29 24.24 4.01 22.33&#10;  Q 5.43 18.61 8.40 15.86&#10;  Q 8.75 15.53 8.36 15.25&#10;  Q 6.34 13.78 4.55 11.64&#10;  Q 3.46 10.32 5.02 9.62&#10;  Q 9.34 7.66 13.34 5.31&#10;  Q 15.31 4.16 19.94 5.11&#10;  Z"/>
<path fill="#cef0fe" d="&#10;  M 20.75 46.15&#10;  L 25.57 44.95&#10;  A 1.37 1.34 55.0 0 1 26.65 45.15&#10;  L 28.97 46.78&#10;  Q 29.48 47.14 29.20 47.69&#10;  C 27.51 51.09 29.01 53.71 30.34 56.80&#10;  Q 30.81 57.90 30.69 59.03&#10;  C 30.46 61.06 29.36 65.65 33.15 65.31&#10;  Q 36.26 65.03 39.24 64.69&#10;  Q 40.98 64.48 42.81 64.90&#10;  Q 44.98 65.38 47.12 65.02&#10;  A 2.20 2.20 0.0 0 0 48.94 63.12&#10;  C 49.27 60.53 48.86 57.94 49.83 55.44&#10;  Q 50.58 53.52 51.08 51.75&#10;  Q 51.63 49.81 50.35 47.80&#10;  Q 50.03 47.30 50.49 46.92&#10;  L 52.54 45.20&#10;  A 1.18 1.16 -56.5 0 1 53.61 44.97&#10;  Q 56.03 45.69 58.38 46.54&#10;  Q 58.46 46.57 58.49 46.50&#10;  L 58.49 46.50&#10;  Q 58.56 46.38 58.44 46.31&#10;  Q 53.79 43.38 48.64 44.26&#10;  Q 48.47 44.29 48.36 44.16&#10;  Q 48.26 44.04 48.12 44.01&#10;  Q 47.67 43.90 47.57 44.36&#10;  Q 47.53 44.54 47.55 44.72&#10;  A 0.58 0.58 0.0 0 1 46.94 45.38&#10;  L 42.58 45.04&#10;  Q 41.90 44.99 41.74 44.33&#10;  L 41.29 42.52&#10;  Q 41.15 41.95 41.73 41.84&#10;  C 44.58 41.33 49.24 39.75 49.07 36.36&#10;  Q 48.88 32.51 47.90 28.38&#10;  Q 47.52 26.81 48.28 25.28&#10;  Q 49.08 23.66 49.42 21.68&#10;  A 0.15 0.14 10.7 0 1 49.60 21.56&#10;  L 49.87 21.62&#10;  Q 50.12 21.69 50.06 21.95&#10;  Q 49.30 25.08 52.34 25.21&#10;  Q 55.46 25.36 55.37 22.44&#10;  Q 55.35 21.85 55.93 21.77&#10;  Q 57.02 21.61 58.15 21.60&#10;  Q 58.54 21.60 58.85 21.37&#10;  Q 59.15 21.14 59.16 20.80&#10;  Q 59.16 20.27 58.66 20.10&#10;  Q 54.68 18.80 50.19 19.70&#10;  C 47.32 20.27 45.82 22.80 44.76 25.29&#10;  Q 44.59 25.70 44.67 26.15&#10;  L 46.52 35.71&#10;  Q 46.63 36.28 46.09 36.47&#10;  Q 42.67 37.66 39.66 37.87&#10;  C 37.14 38.06 35.06 36.69 32.58 36.40&#10;  Q 31.96 36.32 32.09 35.71&#10;  L 34.15 26.28&#10;  Q 34.33 25.47 33.94 24.73&#10;  C 32.57 22.18 31.38 19.76 28.08 19.43&#10;  Q 23.95 19.02 20.06 20.18&#10;  Q 18.15 20.75 20.06 21.32&#10;  L 22.50 22.04&#10;  Q 23.06 22.20 23.21 22.77&#10;  L 23.50 23.81&#10;  Q 23.65 24.33 24.11 24.63&#10;  Q 25.74 25.69 27.85 24.85&#10;  Q 28.35 24.65 28.53 24.14&#10;  L 29.04 22.69&#10;  Q 29.32 21.89 29.73 22.64&#10;  Q 29.93 23.01 29.80 23.43&#10;  Q 29.61 24.02 29.96 24.53&#10;  C 30.63 25.52 31.21 26.66 30.91 27.87&#10;  C 29.97 31.64 27.98 36.14 31.19 39.34&#10;  C 32.75 40.91 34.90 41.23 36.91 41.89&#10;  A 0.63 0.62 10.5 0 1 37.34 42.51&#10;  Q 37.30 43.54 36.78 44.49&#10;  Q 36.53 44.96 36.01 45.05&#10;  Q 33.47 45.50 31.15 45.16&#10;  Q 31.00 45.14 30.88 45.04&#10;  Q 30.77 44.94 30.71 44.79&#10;  Q 30.60 44.48 30.28 44.40&#10;  Q 25.14 42.98 20.46 45.83&#10;  Q 19.29 46.40 18.54 45.21&#10;  Q 17.50 43.55 16.56 42.67&#10;  Q 16.40 42.51 16.36 42.35&#10;  Q 16.29 41.99 16.54 41.98&#10;  Q 17.75 41.90 18.96 41.51&#10;  C 21.53 40.67 24.57 40.76 27.27 41.03&#10;  Q 27.47 41.06 27.62 40.91&#10;  Q 27.70 40.82 27.74 40.69&#10;  Q 27.76 40.64 27.71 40.62&#10;  C 22.30 38.69 20.11 33.61 24.30 28.82&#10;  Q 25.49 27.46 23.75 27.97&#10;  C 19.94 29.08 16.27 31.25 15.83 35.21&#10;  C 15.59 37.40 17.60 38.81 19.37 39.67&#10;  Q 20.32 40.13 19.31 40.43&#10;  L 16.43 41.29&#10;  Q 16.14 41.43 15.83 40.99&#10;  Q 10.67 33.62 16.09 27.02&#10;  Q 16.39 26.65 16.35 26.17&#10;  Q 16.11 23.25 16.33 20.45&#10;  Q 16.37 19.99 16.16 19.57&#10;  Q 16.07 19.38 15.86 19.35&#10;  Q 15.04 19.25 15.40 18.50&#10;  C 17.00 15.22 20.42 9.66 24.33 9.02&#10;  Q 26.53 8.67 28.69 7.77&#10;  A 0.52 0.52 0.0 0 0 28.64 6.79&#10;  L 27.47 6.44&#10;  A 0.52 0.51 10.5 0 1 27.10 5.91&#10;  L 27.12 5.59&#10;  A 0.22 0.21 -0.1 0 1 27.33 5.39&#10;  Q 30.66 5.37 33.44 6.92&#10;  Q 34.04 7.26 34.03 6.56&#10;  L 34.01 5.78&#10;  A 0.89 0.89 0.0 0 1 35.41 5.04&#10;  C 36.56 5.84 37.88 6.88 38.02 8.42&#10;  Q 38.38 12.31 38.84 15.78&#10;  Q 38.92 16.36 39.50 16.34&#10;  Q 39.75 16.33 39.90 16.14&#10;  Q 40.01 15.98 40.03 15.79&#10;  Q 40.41 11.58 41.00 6.98&#10;  Q 41.07 6.47 41.47 6.17&#10;  Q 42.68 5.26 44.26 5.16&#10;  Q 44.95 5.11 44.49 5.63&#10;  Q 44.04 6.13 43.96 6.81&#10;  Q 43.84 7.90 44.78 7.34&#10;  Q 47.74 5.58 50.89 5.71&#10;  Q 51.03 5.71 51.13 5.61&#10;  Q 51.62 5.11 51.26 5.72&#10;  Q 50.52 6.97 49.55 7.94&#10;  A 0.28 0.27 29.5 0 0 49.68 8.40&#10;  Q 51.99 8.97 54.52 9.49&#10;  Q 56.68 9.94 58.29 11.73&#10;  Q 61.15 14.91 62.76 18.42&#10;  Q 63.02 18.97 62.53 19.34&#10;  L 62.19 19.60&#10;  Q 61.70 19.98 61.74 20.59&#10;  L 62.05 25.68&#10;  Q 62.08 26.03 61.81 26.27&#10;  Q 61.68 26.38 61.75 26.53&#10;  Q 61.83 26.68 61.95 26.80&#10;  Q 66.84 31.79 63.96 38.72&#10;  Q 62.68 41.82 61.00 44.08&#10;  Q 56.48 50.14 55.14 56.06&#10;  C 54.00 61.11 52.41 68.29 46.70 69.41&#10;  Q 41.93 70.34 35.93 69.83&#10;  C 22.98 68.73 25.99 55.64 20.52 47.71&#10;  Q 19.78 46.64 20.75 46.15&#10;  Z&#10;  M 47.88 17.04&#10;  Q 51.83 15.98 53.51 13.27&#10;  Q 54.74 11.27 52.68 12.39&#10;  Q 48.97 14.39 45.26 15.57&#10;  A 1.59 1.59 0.0 0 0 44.15 17.03&#10;  L 43.99 21.70&#10;  Q 43.95 22.75 44.62 21.93&#10;  Q 46.08 20.12 47.06 17.76&#10;  Q 47.30 17.20 47.88 17.04&#10;  Z&#10;  M 31.68 18.07&#10;  Q 32.51 20.12 34.09 21.99&#10;  Q 34.69 22.71 34.64 21.77&#10;  L 34.39 16.97&#10;  A 1.13 1.12 -79.6 0 0 33.73 16.01&#10;  L 25.80 12.37&#10;  Q 23.80 11.45 25.03 13.27&#10;  C 25.57 14.06 26.08 14.88 26.95 15.33&#10;  Q 28.93 16.35 30.93 17.29&#10;  Q 31.46 17.53 31.68 18.07&#10;  Z&#10;  M 36.57 23.36&#10;  L 36.76 23.56&#10;  Q 36.85 23.66 36.98 23.61&#10;  Q 39.10 22.84 40.91 23.59&#10;  A 0.74 0.73 -58.6 0 0 41.76 23.38&#10;  L 42.02 23.08&#10;  Q 42.37 22.67 41.86 22.46&#10;  Q 39.16 21.36 36.65 22.81&#10;  Q 36.27 23.03 36.57 23.36&#10;  Z&#10;  M 58.77 39.82&#10;  C 61.88 38.58 63.96 36.37 62.15 32.89&#10;  C 60.43 29.58 57.58 29.02 54.50 27.71&#10;  Q 54.17 27.57 53.96 27.85&#10;  Q 53.65 28.24 54.02 28.57&#10;  C 56.65 30.95 57.63 34.42 55.32 37.39&#10;  Q 53.74 39.43 51.78 40.18&#10;  Q 49.62 41.01 51.93 40.90&#10;  Q 56.54 40.68 61.10 41.81&#10;  Q 61.25 41.85 61.30 41.70&#10;  L 61.31 41.69&#10;  Q 61.37 41.49 61.18 41.41&#10;  Q 60.01 40.92 58.77 40.42&#10;  Q 58.02 40.12 58.77 39.82&#10;  Z&#10;  M 27.50 42.46&#10;  Q 22.79 41.48 18.40 43.55&#10;  Q 18.28 43.61 18.37 43.70&#10;  L 18.62 43.95&#10;  Q 18.75 44.08 18.93 44.01&#10;  Q 21.40 42.98 23.68 42.94&#10;  Q 26.14 42.89 28.51 42.74&#10;  Q 28.78 42.72 28.98 42.55&#10;  Q 29.18 42.38 29.24 42.10&#10;  Q 29.36 41.59 28.91 41.87&#10;  L 28.19 42.33&#10;  A 0.97 0.96 -55.6 0 1 27.50 42.46&#10;  Z&#10;  M 57.07 43.22&#10;  Q 58.11 43.53 59.23 43.80&#10;  Q 59.29 43.82 59.31 43.69&#10;  L 59.34 43.51&#10;  Q 59.36 43.40 59.25 43.35&#10;  Q 54.39 41.41 49.02 42.38&#10;  Q 48.91 42.40 48.92 42.52&#10;  L 48.96 42.79&#10;  Q 48.99 43.06 49.26 43.02&#10;  C 51.41 42.73 54.81 42.52 57.07 43.22&#10;  Z"/>
<path fill="#cef0fe" d="&#10;  M 16.67 8.47&#10;  Q 17.97 8.68 18.99 9.27&#10;  Q 19.44 9.52 19.16 9.95&#10;  Q 16.45 14.17 12.51 13.32&#10;  L 10.18 12.02&#10;  Q 9.72 11.76 10.12 11.43&#10;  Q 13.09 8.94 16.67 8.47&#10;  Z"/>
<path fill="#cef0fe" d="&#10;  M 62.15 8.86&#10;  Q 65.30 9.53 68.17 11.47&#10;  Q 68.60 11.76 68.22 12.13&#10;  Q 67.63 12.72 66.85 12.99&#10;  C 63.19 14.92 61.36 12.78 59.16 10.29&#10;  A 0.56 0.56 0.0 0 1 59.47 9.37&#10;  L 62.15 8.86&#10;  Z"/>
<path fill="#03274d" d="&#10;  M 47.06 17.76&#10;  Q 46.08 20.12 44.62 21.93&#10;  Q 43.95 22.75 43.99 21.70&#10;  L 44.15 17.03&#10;  A 1.59 1.59 0.0 0 1 45.26 15.57&#10;  Q 48.97 14.39 52.68 12.39&#10;  Q 54.74 11.27 53.51 13.27&#10;  Q 51.83 15.98 47.88 17.04&#10;  Q 47.30 17.20 47.06 17.76&#10;  Z"/>
<path fill="#03274d" d="&#10;  M 30.93 17.29&#10;  Q 28.93 16.35 26.95 15.33&#10;  C 26.08 14.88 25.57 14.06 25.03 13.27&#10;  Q 23.80 11.45 25.80 12.37&#10;  L 33.73 16.01&#10;  A 1.13 1.12 -79.6 0 1 34.39 16.97&#10;  L 34.64 21.77&#10;  Q 34.69 22.71 34.09 21.99&#10;  Q 32.51 20.12 31.68 18.07&#10;  Q 31.46 17.53 30.93 17.29&#10;  Z"/>
<path fill="#03274d" d="&#10;  M 20.75 46.15&#10;  Q 20.74 45.87 20.46 45.83&#10;  Q 25.14 42.98 30.28 44.40&#10;  Q 30.60 44.48 30.71 44.79&#10;  Q 30.77 44.94 30.88 45.04&#10;  Q 31.00 45.14 31.15 45.16&#10;  Q 33.47 45.50 36.01 45.05&#10;  Q 36.53 44.96 36.78 44.49&#10;  Q 37.30 43.54 37.34 42.51&#10;  A 0.63 0.62 10.5 0 0 36.91 41.89&#10;  C 34.90 41.23 32.75 40.91 31.19 39.34&#10;  C 27.98 36.14 29.97 31.64 30.91 27.87&#10;  C 31.21 26.66 30.63 25.52 29.96 24.53&#10;  Q 29.61 24.02 29.80 23.43&#10;  Q 29.93 23.01 29.73 22.64&#10;  Q 29.32 21.89 29.04 22.69&#10;  L 28.53 24.14&#10;  Q 28.35 24.65 27.85 24.85&#10;  Q 25.74 25.69 24.11 24.63&#10;  Q 23.65 24.33 23.50 23.81&#10;  L 23.21 22.77&#10;  Q 23.06 22.20 22.50 22.04&#10;  L 20.06 21.32&#10;  Q 18.15 20.75 20.06 20.18&#10;  Q 23.95 19.02 28.08 19.43&#10;  C 31.38 19.76 32.57 22.18 33.94 24.73&#10;  Q 34.33 25.47 34.15 26.28&#10;  L 32.09 35.71&#10;  Q 31.96 36.32 32.58 36.40&#10;  C 35.06 36.69 37.14 38.06 39.66 37.87&#10;  Q 42.67 37.66 46.09 36.47&#10;  Q 46.63 36.28 46.52 35.71&#10;  L 44.67 26.15&#10;  Q 44.59 25.70 44.76 25.29&#10;  C 45.82 22.80 47.32 20.27 50.19 19.70&#10;  Q 54.68 18.80 58.66 20.10&#10;  Q 59.16 20.27 59.16 20.80&#10;  Q 59.15 21.14 58.85 21.37&#10;  Q 58.54 21.60 58.15 21.60&#10;  Q 57.02 21.61 55.93 21.77&#10;  Q 55.35 21.85 55.37 22.44&#10;  Q 55.46 25.36 52.34 25.21&#10;  Q 49.30 25.08 50.06 21.95&#10;  Q 50.12 21.69 49.87 21.62&#10;  L 49.60 21.56&#10;  A 0.15 0.14 10.7 0 0 49.42 21.68&#10;  Q 49.08 23.66 48.28 25.28&#10;  Q 47.52 26.81 47.90 28.38&#10;  Q 48.88 32.51 49.07 36.36&#10;  C 49.24 39.75 44.58 41.33 41.73 41.84&#10;  Q 41.15 41.95 41.29 42.52&#10;  L 41.74 44.33&#10;  Q 41.90 44.99 42.58 45.04&#10;  L 46.94 45.38&#10;  A 0.58 0.58 0.0 0 0 47.55 44.72&#10;  Q 47.53 44.54 47.57 44.36&#10;  Q 47.67 43.90 48.12 44.01&#10;  Q 48.26 44.04 48.36 44.16&#10;  Q 48.47 44.29 48.64 44.26&#10;  Q 53.79 43.38 58.44 46.31&#10;  Q 58.56 46.38 58.49 46.50&#10;  L 58.49 46.50&#10;  Q 58.46 46.57 58.38 46.54&#10;  Q 56.03 45.69 53.61 44.97&#10;  A 1.18 1.16 -56.5 0 0 52.54 45.20&#10;  L 50.49 46.92&#10;  Q 50.03 47.30 50.35 47.80&#10;  Q 51.63 49.81 51.08 51.75&#10;  Q 50.58 53.52 49.83 55.44&#10;  C 48.86 57.94 49.27 60.53 48.94 63.12&#10;  A 2.20 2.20 0.0 0 1 47.12 65.02&#10;  Q 44.98 65.38 42.81 64.90&#10;  Q 40.98 64.48 39.24 64.69&#10;  Q 36.26 65.03 33.15 65.31&#10;  C 29.36 65.65 30.46 61.06 30.69 59.03&#10;  Q 30.81 57.90 30.34 56.80&#10;  C 29.01 53.71 27.51 51.09 29.20 47.69&#10;  Q 29.48 47.14 28.97 46.78&#10;  L 26.65 45.15&#10;  A 1.37 1.34 55.0 0 0 25.57 44.95&#10;  L 20.75 46.15&#10;  Z&#10;  M 25.85 22.80&#10;  Q 25.37 22.49 24.82 22.29&#10;  Q 23.85 21.95 24.41 22.81&#10;  L 24.99 23.71&#10;  Q 25.37 24.29 26.06 24.27&#10;  Q 28.02 24.21 28.33 22.05&#10;  Q 28.42 21.45 27.95 21.83&#10;  L 26.82 22.75&#10;  Q 26.35 23.12 25.85 22.80&#10;  Z&#10;  M 52.42 22.98&#10;  Q 52.01 22.73 51.71 22.32&#10;  Q 51.16 21.56 51.00 22.48&#10;  Q 50.92 23.02 51.07 23.55&#10;  Q 51.30 24.33 52.11 24.29&#10;  Q 53.97 24.21 54.42 22.76&#10;  Q 54.58 22.25 54.05 22.27&#10;  Q 53.38 22.29 52.98 22.86&#10;  Q 52.76 23.17 52.42 22.98&#10;  Z&#10;  M 32.24 53.76&#10;  Q 32.87 54.71 32.65 55.59&#10;  Q 32.64 55.62 32.61 55.64&#10;  Q 32.49 55.71 32.37 55.71&#10;  Q 32.03 55.73 32.03 55.39&#10;  Q 32.03 53.89 31.35 53.11&#10;  Q 29.68 51.21 30.55 53.59&#10;  Q 31.39 55.88 32.91 59.18&#10;  Q 32.57 61.18 33.14 62.97&#10;  Q 33.42 63.84 34.29 63.56&#10;  L 35.17 63.27&#10;  Q 35.98 63.01 35.78 62.18&#10;  L 34.79 58.11&#10;  L 36.39 59.72&#10;  A 0.27 0.27 0.0 0 0 36.76 59.73&#10;  L 37.02 59.49&#10;  Q 37.44 59.09 37.79 59.56&#10;  Q 38.65 60.72 39.81 61.44&#10;  Q 39.29 62.30 38.36 60.55&#10;  A 0.78 0.78 0.0 0 0 36.99 60.54&#10;  L 36.33 61.72&#10;  A 0.71 0.71 0.0 0 0 36.98 62.77&#10;  L 42.87 62.47&#10;  Q 44.23 62.99 45.55 62.91&#10;  Q 46.10 62.88 46.27 62.35&#10;  Q 46.70 60.94 46.18 59.63&#10;  Q 45.94 59.04 46.56 58.89&#10;  L 46.98 58.79&#10;  Q 47.55 58.65 47.66 58.07&#10;  L 48.74 52.46&#10;  Q 47.79 50.72 47.76 48.21&#10;  Q 47.76 47.50 47.08 47.69&#10;  Q 43.50 48.70 40.13 47.15&#10;  A 1.56 1.55 46.3 0 0 38.92 47.12&#10;  Q 35.44 48.51 32.28 47.79&#10;  A 0.82 0.80 14.9 0 0 31.33 48.33&#10;  Q 30.39 51.27 32.24 53.76&#10;  Z"/>
<path fill="#cef0fe" d="&#10;  M 26.82 22.75&#10;  L 27.95 21.83&#10;  Q 28.42 21.45 28.33 22.05&#10;  Q 28.02 24.21 26.06 24.27&#10;  Q 25.37 24.29 24.99 23.71&#10;  L 24.41 22.81&#10;  Q 23.85 21.95 24.82 22.29&#10;  Q 25.37 22.49 25.85 22.80&#10;  Q 26.35 23.12 26.82 22.75&#10;  Z"/>
<path fill="#023d6e" d="&#10;  M 36.65 22.81&#10;  Q 39.16 21.36 41.86 22.46&#10;  Q 42.37 22.67 42.02 23.08&#10;  L 41.76 23.38&#10;  A 0.74 0.73 -58.6 0 1 40.91 23.59&#10;  Q 39.10 22.84 36.98 23.61&#10;  Q 36.85 23.66 36.76 23.56&#10;  L 36.57 23.36&#10;  Q 36.27 23.03 36.65 22.81&#10;  Z"/>
<path fill="#cef0fe" d="&#10;  M 52.98 22.86&#10;  Q 53.38 22.29 54.05 22.27&#10;  Q 54.58 22.25 54.42 22.76&#10;  Q 53.97 24.21 52.11 24.29&#10;  Q 51.30 24.33 51.07 23.55&#10;  Q 50.92 23.02 51.00 22.48&#10;  Q 51.16 21.56 51.71 22.32&#10;  Q 52.01 22.73 52.42 22.98&#10;  Q 52.76 23.17 52.98 22.86&#10;  Z"/>
<path fill="#3d78a3" d="&#10;  M 6.23 26.14&#10;  Q 6.24 25.56 3.99 25.94&#10;  Q 3.74 25.15 5.25 25.08&#10;  Q 6.01 25.05 6.75 25.28&#10;  Q 7.26 25.44 7.02 25.92&#10;  Q 6.66 26.63 6.23 26.14&#10;  Z"/>
<path fill="#03274d" d="&#10;  M 16.54 41.98&#10;  Q 16.57 41.49 16.43 41.29&#10;  L 19.31 40.43&#10;  Q 20.32 40.13 19.37 39.67&#10;  C 17.60 38.81 15.59 37.40 15.83 35.21&#10;  C 16.27 31.25 19.94 29.08 23.75 27.97&#10;  Q 25.49 27.46 24.30 28.82&#10;  C 20.11 33.61 22.30 38.69 27.71 40.62&#10;  Q 27.76 40.64 27.74 40.69&#10;  Q 27.70 40.82 27.62 40.91&#10;  Q 27.47 41.06 27.27 41.03&#10;  C 24.57 40.76 21.53 40.67 18.96 41.51&#10;  Q 17.75 41.90 16.54 41.98&#10;  Z"/>
<path fill="#03274d" d="&#10;  M 58.77 40.42&#10;  Q 60.01 40.92 61.18 41.41&#10;  Q 61.37 41.49 61.31 41.69&#10;  L 61.30 41.70&#10;  Q 61.25 41.85 61.10 41.81&#10;  Q 56.54 40.68 51.93 40.90&#10;  Q 49.62 41.01 51.78 40.18&#10;  Q 53.74 39.43 55.32 37.39&#10;  C 57.63 34.42 56.65 30.95 54.02 28.57&#10;  Q 53.65 28.24 53.96 27.85&#10;  Q 54.17 27.57 54.50 27.71&#10;  C 57.58 29.02 60.43 29.58 62.15 32.89&#10;  C 63.96 36.37 61.88 38.58 58.77 39.82&#10;  Q 58.02 40.12 58.77 40.42&#10;  Z"/>
<path fill="#3d78a3" d="&#10;  M 77.78 40.45&#10;  Q 77.83 40.83 78.00 41.01&#10;  L 78.00 45.59&#10;  Q 77.77 45.93 77.64 46.49&#10;  Q 77.53 46.97 77.11 46.70&#10;  Q 76.95 46.59 76.79 46.30&#10;  L 77.29 40.61&#10;  Q 77.31 40.40 77.52 40.37&#10;  Q 77.64 40.36 77.78 40.45&#10;  Z"/>
<path fill="#023d6e" d="&#10;  M 28.19 42.33&#10;  L 28.91 41.87&#10;  Q 29.36 41.59 29.24 42.10&#10;  Q 29.18 42.38 28.98 42.55&#10;  Q 28.78 42.72 28.51 42.74&#10;  Q 26.14 42.89 23.68 42.94&#10;  Q 21.40 42.98 18.93 44.01&#10;  Q 18.75 44.08 18.62 43.95&#10;  L 18.37 43.70&#10;  Q 18.28 43.61 18.40 43.55&#10;  Q 22.79 41.48 27.50 42.46&#10;  A 0.97 0.96 -55.6 0 0 28.19 42.33&#10;  Z"/>
<path fill="#023d6e" d="&#10;  M 57.07 43.22&#10;  C 54.81 42.52 51.41 42.73 49.26 43.02&#10;  Q 48.99 43.06 48.96 42.79&#10;  L 48.92 42.52&#10;  Q 48.91 42.40 49.02 42.38&#10;  Q 54.39 41.41 59.25 43.35&#10;  Q 59.36 43.40 59.34 43.51&#10;  L 59.31 43.69&#10;  Q 59.29 43.82 59.23 43.80&#10;  Q 58.11 43.53 57.07 43.22&#10;  Z"/>
<path fill="#eceded" d="&#10;  M 48.74 52.46&#10;  Q 48.37 53.22 47.74 53.76&#10;  Q 47.74 53.54 47.63 53.42&#10;  Q 47.52 53.30 47.33 53.35&#10;  Q 47.15 53.41 47.02 53.59&#10;  Q 46.49 53.64 46.08 53.10&#10;  Q 45.93 51.15 45.12 49.42&#10;  Q 44.86 48.86 44.33 49.17&#10;  Q 44.00 49.37 43.97 49.78&#10;  Q 43.89 50.83 43.33 51.52&#10;  Q 43.02 51.90 42.82 51.45&#10;  L 41.76 49.18&#10;  Q 41.45 48.49 41.06 49.13&#10;  L 39.59 51.56&#10;  A 0.47 0.47 0.0 0 1 38.74 51.45&#10;  Q 38.42 50.38 37.90 49.48&#10;  Q 37.23 48.33 36.93 49.63&#10;  Q 36.73 50.48 36.08 51.04&#10;  Q 35.40 51.64 35.15 50.77&#10;  L 34.67 49.04&#10;  Q 34.47 48.32 34.15 48.99&#10;  Q 33.17 51.06 32.99 53.26&#10;  Q 32.81 54.09 32.24 53.76&#10;  Q 30.39 51.27 31.33 48.33&#10;  A 0.82 0.80 14.9 0 1 32.28 47.79&#10;  Q 35.44 48.51 38.92 47.12&#10;  A 1.56 1.55 46.3 0 1 40.13 47.15&#10;  Q 43.50 48.70 47.08 47.69&#10;  Q 47.76 47.50 47.76 48.21&#10;  Q 47.79 50.72 48.74 52.46&#10;  Z"/>
<path fill="#03274d" d="&#10;  M 46.08 53.10&#10;  Q 42.61 52.50 40.13 54.72&#10;  Q 39.74 55.06 39.23 55.02&#10;  C 38.28 54.96 37.39 53.94 36.43 53.62&#10;  Q 34.83 53.09 32.99 53.26&#10;  Q 33.17 51.06 34.15 48.99&#10;  Q 34.47 48.32 34.67 49.04&#10;  L 35.15 50.77&#10;  Q 35.40 51.64 36.08 51.04&#10;  Q 36.73 50.48 36.93 49.63&#10;  Q 37.23 48.33 37.90 49.48&#10;  Q 38.42 50.38 38.74 51.45&#10;  A 0.47 0.47 0.0 0 0 39.59 51.56&#10;  L 41.06 49.13&#10;  Q 41.45 48.49 41.76 49.18&#10;  L 42.82 51.45&#10;  Q 43.02 51.90 43.33 51.52&#10;  Q 43.89 50.83 43.97 49.78&#10;  Q 44.00 49.37 44.33 49.17&#10;  Q 44.86 48.86 45.12 49.42&#10;  Q 45.93 51.15 46.08 53.10&#10;  Z"/>
<path fill="#cef0fe" d="&#10;  M 32.24 53.76&#10;  Q 32.81 54.09 32.99 53.26&#10;  Q 34.83 53.09 36.43 53.62&#10;  C 37.39 53.94 38.28 54.96 39.23 55.02&#10;  Q 39.74 55.06 40.13 54.72&#10;  Q 42.61 52.50 46.08 53.10&#10;  Q 46.49 53.64 47.02 53.59&#10;  Q 46.36 54.58 46.38 55.28&#10;  Q 46.40 55.95 46.75 55.38&#10;  L 47.74 53.76&#10;  Q 48.37 53.22 48.74 52.46&#10;  L 47.66 58.07&#10;  Q 47.55 58.65 46.98 58.79&#10;  L 46.56 58.89&#10;  Q 45.94 59.04 46.18 59.63&#10;  Q 46.70 60.94 46.27 62.35&#10;  Q 46.10 62.88 45.55 62.91&#10;  Q 44.23 62.99 42.87 62.47&#10;  Q 43.04 61.55 43.23 61.86&#10;  Q 44.24 60.82 44.36 58.84&#10;  Q 44.42 57.98 43.77 58.55&#10;  L 42.92 59.29&#10;  Q 42.51 59.65 41.96 59.58&#10;  Q 41.24 59.47 41.04 59.96&#10;  Q 40.92 60.71 39.81 61.44&#10;  Q 38.65 60.72 37.79 59.56&#10;  Q 37.44 59.09 37.02 59.49&#10;  L 36.76 59.73&#10;  A 0.27 0.27 0.0 0 1 36.39 59.72&#10;  L 34.79 58.11&#10;  Q 34.54 56.81 32.91 59.18&#10;  Q 31.39 55.88 30.55 53.59&#10;  Q 29.68 51.21 31.35 53.11&#10;  Q 32.03 53.89 32.03 55.39&#10;  Q 32.03 55.73 32.37 55.71&#10;  Q 32.49 55.71 32.61 55.64&#10;  Q 32.64 55.62 32.65 55.59&#10;  Q 32.87 54.71 32.24 53.76&#10;  Z&#10;  M 45.64 57.76&#10;  Q 45.46 56.85 44.92 56.13&#10;  Q 44.43 55.49 44.40 56.30&#10;  Q 44.37 57.53 45.44 57.93&#10;  Q 45.68 58.02 45.64 57.76&#10;  Z"/>
<path fill="#023d6e" d="&#10;  M 47.74 53.76&#10;  L 46.75 55.38&#10;  Q 46.40 55.95 46.38 55.28&#10;  Q 46.36 54.58 47.02 53.59&#10;  Q 47.15 53.41 47.33 53.35&#10;  Q 47.52 53.30 47.63 53.42&#10;  Q 47.74 53.54 47.74 53.76&#10;  Z"/>
<path fill="#035088" d="&#10;  M 45.64 57.76&#10;  Q 45.68 58.02 45.44 57.93&#10;  Q 44.37 57.53 44.40 56.30&#10;  Q 44.43 55.49 44.92 56.13&#10;  Q 45.46 56.85 45.64 57.76&#10;  Z"/>
<path fill="#eceded" d="&#10;  M 34.79 58.11&#10;  L 35.78 62.18&#10;  Q 35.98 63.01 35.17 63.27&#10;  L 34.29 63.56&#10;  Q 33.42 63.84 33.14 62.97&#10;  Q 32.57 61.18 32.91 59.18&#10;  Q 34.54 56.81 34.79 58.11&#10;  Z"/>
<path fill="#03274d" d="&#10;  M 43.23 61.86&#10;  Q 41.96 61.30 41.89 60.33&#10;  Q 41.86 59.90 41.43 59.87&#10;  Q 41.24 59.86 41.04 59.96&#10;  Q 41.24 59.47 41.96 59.58&#10;  Q 42.51 59.65 42.92 59.29&#10;  L 43.77 58.55&#10;  Q 44.42 57.98 44.36 58.84&#10;  Q 44.24 60.82 43.23 61.86&#10;  Z"/>
<path fill="#eceded" d="&#10;  M 39.81 61.44&#10;  Q 40.92 60.71 41.04 59.96&#10;  Q 41.24 59.86 41.43 59.87&#10;  Q 41.86 59.90 41.89 60.33&#10;  Q 41.96 61.30 43.23 61.86&#10;  Q 43.04 61.55 42.87 62.47&#10;  L 36.98 62.77&#10;  A 0.71 0.71 0.0 0 1 36.33 61.72&#10;  L 36.99 60.54&#10;  A 0.78 0.78 0.0 0 1 38.36 60.55&#10;  Q 39.29 62.30 39.81 61.44&#10;  Z"/>
<path fill="#3d78a3" d="&#10;  M 15.58 64.79&#10;  Q 14.99 65.52 14.85 67.21&#10;  Q 13.44 64.73 14.32 62.43&#10;  Q 14.52 61.91 14.99 62.21&#10;  Q 15.93 62.80 15.58 64.79&#10;  Z"/>
<path fill="#3d78a3" d="&#10;  M 62.28 67.89&#10;  L 61.62 65.09&#10;  Q 61.04 63.78 61.29 62.90&#10;  Q 61.45 62.33 61.79 62.82&#10;  Q 63.34 65.04 62.28 67.89&#10;  Z"/>
</svg>